# xmcd CD database file
#
# Track frame offsets:
#	150
#	17441
#	36902
#	55010
#	73456
#	99369
#	123882
#	147916
#	164749
#	181551
#	206641
#	225914
#	247071
#
# Disc length: 3524 seconds
#
# Revision: 0
# Processed by: cddbd v1.5.1PL2 Copyright (c) Steve Scherf et al.
# Submitted via: CDex 1.51
#
DISCID=ad0dc20d
DTITLE=ワンズ・相川ほか - マイミュージック
DYEAR=1900
DGENRE=ポップ (一般)
TTITLE0=Jumpin' Jack Boy 〜 Album Version 〜
TTITLE1=夢見る少女じゃいられない
TTITLE2=恋心
TTITLE3=トラブルメイカー
TTITLE4=Don't Let Me Cry 〜一千一秒物語〜
TTITLE5=All-Right All-Night 〜No Tears No Blood〜
TTITLE6=個人教授
TTITLE7=愛の世代の前に
TTITLE8=Naked Woman
TTITLE9=Over The Trouble
TTITLE10=Gloria
TTITLE11=君がいるだけで
TTITLE12=青春の輝き
EXTD=
EXTT0=
EXTT1=
EXTT2=
EXTT3=
EXTT4=
EXTT5=
EXTT6=
EXTT7=
EXTT8=
EXTT9=
EXTT10=
EXTT11=
EXTT12=
PLAYORDER=
